<svg width="26" height="25" viewBox="0 0 26 25" fill="none" xmlns="http://www.w3.org/2000/svg">
<path id="Vector" d="M25.6667 22.1667V24.5H17.5V22.1667H20.37L12.8333 4.21167C12.6117 3.66333 12.25 3.22 11.7367 2.87C11.2233 2.52 10.6633 2.33333 10.045 2.33333C9.21667 2.33333 8.49333 2.64833 7.88667 3.255C7.28 3.86167 7 4.57333 7 5.41333V9.33333H8.16667C10.745 9.33333 12.8333 11.4217 12.8333 14V24.5H8.16667C8.87833 23.52 9.33333 22.3183 9.33333 21C9.33333 17.78 6.72 15.1667 3.5 15.1667C2.67167 15.1667 1.87833 15.3417 1.16667 15.6567V9.33333H4.66667V5.41333C4.66667 4.43333 4.935 3.5 5.40167 2.70667C5.88 1.89 6.52167 1.23667 7.35 0.735C8.16667 0.245 9.065 0 10.045 0C11.1417 0 12.1333 0.303333 13.02 0.898333C13.9067 1.49333 14.5833 2.29833 15.015 3.27833L22.9367 22.1667H25.6667ZM7 21C7 22.9367 5.43667 24.5 3.5 24.5C1.56333 24.5 0 22.9367 0 21C0 19.0633 1.56333 17.5 3.5 17.5C5.43667 17.5 7 19.0633 7 21ZM4.66667 21C4.66667 20.3583 4.14167 19.8333 3.5 19.8333C2.85833 19.8333 2.33333 20.3583 2.33333 21C2.33333 21.6417 2.85833 22.1667 3.5 22.1667C4.14167 22.1667 4.66667 21.6417 4.66667 21Z" fill="#434343"/>
</svg>
