<svg width="24" height="21" viewBox="0 0 24 21" fill="none" xmlns="http://www.w3.org/2000/svg">
<path id="Vector" d="M8.75 14.5833L16.9167 9.33333L8.75 4.08333V14.5833ZM7 21V18.6667H2.33334C1.69167 18.6667 1.14217 18.438 0.684835 17.9807C0.227502 17.5233 -0.000775797 16.9742 1.98076e-06 16.3333V2.33334C1.98076e-06 1.69167 0.228669 1.14217 0.686002 0.684835C1.14334 0.227502 1.69245 -0.000775797 2.33334 1.98076e-06H21C21.6417 1.98076e-06 22.1912 0.228669 22.6485 0.686002C23.1058 1.14334 23.3341 1.69245 23.3333 2.33334V16.3333C23.3333 16.975 23.1047 17.5245 22.6473 17.9818C22.19 18.4392 21.6409 18.6674 21 18.6667H16.3333V21H7ZM2.33334 16.3333H21V2.33334H2.33334V16.3333Z" fill="#434343"/>
</svg>
